<mxfile host="app.diagrams.net" modified="2024-01-19T16:07:30.643Z" agent="Mozilla/5.0 (Windows NT 10.0; Win64; x64) AppleWebKit/537.36 (KHTML, like Gecko) Chrome/120.0.0.0 Safari/537.36" etag="4eRDVONDYXPH_ersBBiz" version="22.1.18" type="device">
  <diagram name="Страница — 1" id="pDQJVzQKOBXGyjnrA99j">
    <mxGraphModel dx="4424" dy="1891" grid="1" gridSize="10" guides="1" tooltips="1" connect="1" arrows="1" fold="1" page="1" pageScale="1" pageWidth="827" pageHeight="1169" math="0" shadow="0">
      <root>
        <mxCell id="0" />
        <mxCell id="1" parent="0" />
        <mxCell id="rXnOGi-BLKqSF4Zhf59p-10" style="edgeStyle=orthogonalEdgeStyle;rounded=0;orthogonalLoop=1;jettySize=auto;html=1;exitX=1;exitY=0.5;exitDx=0;exitDy=0;entryX=0;entryY=0.5;entryDx=0;entryDy=0;strokeWidth=4;" edge="1" parent="1" source="rXnOGi-BLKqSF4Zhf59p-1" target="rXnOGi-BLKqSF4Zhf59p-5">
          <mxGeometry relative="1" as="geometry" />
        </mxCell>
        <mxCell id="rXnOGi-BLKqSF4Zhf59p-11" style="edgeStyle=orthogonalEdgeStyle;rounded=0;orthogonalLoop=1;jettySize=auto;html=1;exitX=1;exitY=0.5;exitDx=0;exitDy=0;entryX=0;entryY=0.5;entryDx=0;entryDy=0;strokeWidth=4;" edge="1" parent="1" source="rXnOGi-BLKqSF4Zhf59p-1" target="rXnOGi-BLKqSF4Zhf59p-4">
          <mxGeometry relative="1" as="geometry" />
        </mxCell>
        <mxCell id="rXnOGi-BLKqSF4Zhf59p-12" style="edgeStyle=orthogonalEdgeStyle;rounded=0;orthogonalLoop=1;jettySize=auto;html=1;exitX=1;exitY=0.5;exitDx=0;exitDy=0;entryX=0;entryY=0.5;entryDx=0;entryDy=0;strokeWidth=4;" edge="1" parent="1" source="rXnOGi-BLKqSF4Zhf59p-1" target="rXnOGi-BLKqSF4Zhf59p-6">
          <mxGeometry relative="1" as="geometry" />
        </mxCell>
        <mxCell id="rXnOGi-BLKqSF4Zhf59p-13" style="edgeStyle=orthogonalEdgeStyle;rounded=0;orthogonalLoop=1;jettySize=auto;html=1;exitX=1;exitY=0.5;exitDx=0;exitDy=0;entryX=0;entryY=0.5;entryDx=0;entryDy=0;strokeWidth=4;" edge="1" parent="1" source="rXnOGi-BLKqSF4Zhf59p-1" target="rXnOGi-BLKqSF4Zhf59p-2">
          <mxGeometry relative="1" as="geometry" />
        </mxCell>
        <mxCell id="rXnOGi-BLKqSF4Zhf59p-14" style="edgeStyle=orthogonalEdgeStyle;rounded=0;orthogonalLoop=1;jettySize=auto;html=1;exitX=1;exitY=0.5;exitDx=0;exitDy=0;entryX=0;entryY=0.5;entryDx=0;entryDy=0;strokeWidth=4;" edge="1" parent="1" source="rXnOGi-BLKqSF4Zhf59p-1" target="rXnOGi-BLKqSF4Zhf59p-7">
          <mxGeometry relative="1" as="geometry" />
        </mxCell>
        <mxCell id="rXnOGi-BLKqSF4Zhf59p-1" value="&lt;font style=&quot;font-size: 50px;&quot;&gt;serviceProxy&lt;/font&gt;" style="rounded=1;whiteSpace=wrap;html=1;fillColor=#fff2cc;strokeColor=#d6b656;" vertex="1" parent="1">
          <mxGeometry x="100" y="525" width="350" height="120" as="geometry" />
        </mxCell>
        <mxCell id="rXnOGi-BLKqSF4Zhf59p-16" style="edgeStyle=orthogonalEdgeStyle;rounded=0;orthogonalLoop=1;jettySize=auto;html=1;exitX=1;exitY=0.5;exitDx=0;exitDy=0;" edge="1" parent="1" source="rXnOGi-BLKqSF4Zhf59p-2" target="rXnOGi-BLKqSF4Zhf59p-15">
          <mxGeometry relative="1" as="geometry" />
        </mxCell>
        <mxCell id="rXnOGi-BLKqSF4Zhf59p-2" value="&lt;font style=&quot;font-size: 50px;&quot;&gt;proxy#1&lt;/font&gt;" style="rounded=1;whiteSpace=wrap;html=1;fillColor=#fff2cc;strokeColor=#d6b656;" vertex="1" parent="1">
          <mxGeometry x="990" y="40" width="350" height="120" as="geometry" />
        </mxCell>
        <mxCell id="rXnOGi-BLKqSF4Zhf59p-17" style="edgeStyle=orthogonalEdgeStyle;rounded=0;orthogonalLoop=1;jettySize=auto;html=1;exitX=1;exitY=0.5;exitDx=0;exitDy=0;" edge="1" parent="1" source="rXnOGi-BLKqSF4Zhf59p-4" target="rXnOGi-BLKqSF4Zhf59p-15">
          <mxGeometry relative="1" as="geometry" />
        </mxCell>
        <mxCell id="rXnOGi-BLKqSF4Zhf59p-4" value="&lt;font style=&quot;font-size: 50px;&quot;&gt;proxy#2&lt;/font&gt;" style="rounded=1;whiteSpace=wrap;html=1;fillColor=#fff2cc;strokeColor=#d6b656;" vertex="1" parent="1">
          <mxGeometry x="990" y="280" width="350" height="120" as="geometry" />
        </mxCell>
        <mxCell id="rXnOGi-BLKqSF4Zhf59p-18" style="edgeStyle=orthogonalEdgeStyle;rounded=0;orthogonalLoop=1;jettySize=auto;html=1;exitX=1;exitY=0.5;exitDx=0;exitDy=0;" edge="1" parent="1" source="rXnOGi-BLKqSF4Zhf59p-5">
          <mxGeometry relative="1" as="geometry">
            <mxPoint x="1600.000000000001" y="580" as="targetPoint" />
          </mxGeometry>
        </mxCell>
        <mxCell id="rXnOGi-BLKqSF4Zhf59p-5" value="&lt;font style=&quot;font-size: 50px;&quot;&gt;proxy#3&lt;/font&gt;" style="rounded=1;whiteSpace=wrap;html=1;fillColor=#fff2cc;strokeColor=#d6b656;" vertex="1" parent="1">
          <mxGeometry x="990" y="525" width="350" height="120" as="geometry" />
        </mxCell>
        <mxCell id="rXnOGi-BLKqSF4Zhf59p-19" style="edgeStyle=orthogonalEdgeStyle;rounded=0;orthogonalLoop=1;jettySize=auto;html=1;exitX=1;exitY=0.5;exitDx=0;exitDy=0;" edge="1" parent="1" source="rXnOGi-BLKqSF4Zhf59p-6" target="rXnOGi-BLKqSF4Zhf59p-15">
          <mxGeometry relative="1" as="geometry" />
        </mxCell>
        <mxCell id="rXnOGi-BLKqSF4Zhf59p-6" value="&lt;font style=&quot;font-size: 50px;&quot;&gt;proxy#4&lt;/font&gt;" style="rounded=1;whiteSpace=wrap;html=1;fillColor=#fff2cc;strokeColor=#d6b656;" vertex="1" parent="1">
          <mxGeometry x="1000" y="780" width="350" height="120" as="geometry" />
        </mxCell>
        <mxCell id="rXnOGi-BLKqSF4Zhf59p-20" style="edgeStyle=orthogonalEdgeStyle;rounded=0;orthogonalLoop=1;jettySize=auto;html=1;exitX=1;exitY=0.5;exitDx=0;exitDy=0;" edge="1" parent="1" source="rXnOGi-BLKqSF4Zhf59p-7">
          <mxGeometry relative="1" as="geometry">
            <mxPoint x="1959.999999999999" y="890" as="targetPoint" />
          </mxGeometry>
        </mxCell>
        <mxCell id="rXnOGi-BLKqSF4Zhf59p-7" value="&lt;font style=&quot;font-size: 50px;&quot;&gt;proxy#5&lt;/font&gt;" style="rounded=1;whiteSpace=wrap;html=1;fillColor=#fff2cc;strokeColor=#d6b656;" vertex="1" parent="1">
          <mxGeometry x="1000" y="1040" width="350" height="120" as="geometry" />
        </mxCell>
        <mxCell id="rXnOGi-BLKqSF4Zhf59p-9" style="edgeStyle=orthogonalEdgeStyle;rounded=0;orthogonalLoop=1;jettySize=auto;html=1;exitX=1;exitY=0.5;exitDx=0;exitDy=0;strokeWidth=4;" edge="1" parent="1" source="rXnOGi-BLKqSF4Zhf59p-8" target="rXnOGi-BLKqSF4Zhf59p-1">
          <mxGeometry relative="1" as="geometry" />
        </mxCell>
        <mxCell id="rXnOGi-BLKqSF4Zhf59p-8" value="&lt;font style=&quot;font-size: 50px;&quot;&gt;customer&lt;/font&gt;" style="rounded=1;whiteSpace=wrap;html=1;fillColor=#fff2cc;strokeColor=#d6b656;" vertex="1" parent="1">
          <mxGeometry x="-730" y="530" width="350" height="120" as="geometry" />
        </mxCell>
        <mxCell id="rXnOGi-BLKqSF4Zhf59p-15" value="&lt;font style=&quot;font-size: 70px;&quot;&gt;amazon&lt;/font&gt;" style="ellipse;whiteSpace=wrap;html=1;fillColor=#dae8fc;strokeColor=#6c8ebf;" vertex="1" parent="1">
          <mxGeometry x="1610" y="280" width="660" height="600" as="geometry" />
        </mxCell>
      </root>
    </mxGraphModel>
  </diagram>
</mxfile>
